# xmcd
#
# Track frame offsets:
#	150
#	13476
#	25496
#	40475
#	54964
#	68701
#	85318
#	101318
#	114809
#	134797
#	151187
#	166872
#	184493
#	202043
#	219453
#
# Disc length: 3126 seconds
#
# Revision: 1
# Processed by: cddbd v1.4PL0 Copyright (c) Steve Scherf et al.
# Submitted via: EasyCDDAExtractor 5.0.6
#
DISCID=d20c340f
DTITLE=Johnny Cash - THE MAN COMES AROUND 
DYEAR=2003
DGENRE=AlternRock
TTITLE0=The Man Comes Around 
TTITLE1=Hurt 
TTITLE2=Give My Love To Rose 
TTITLE3=Bridge Over Troubled Water 
TTITLE4=I Hung My Head 
TTITLE5=First Time Ever I Saw Your Face 
TTITLE6=Personal Jesus 
TTITLE7=In My Life 
TTITLE8=Sam Hall 
TTITLE9=Danny Boy 
TTITLE10=Desperado 
TTITLE11=I'm So Lonesome I Could Cry 
TTITLE12=Tear Stained Letter
TTITLE13=Streets Of Laredo 
TTITLE14=We'll Meet Again 
EXTD=
EXTT0=
EXTT1=
EXTT2=
EXTT3=
EXTT4=
EXTT5=
EXTT6=
EXTT7=
EXTT8=
EXTT9=
EXTT10=
EXTT11=
EXTT12=
EXTT13=
EXTT14=
PLAYORDER=
